<svg width="2834" height="950" viewBox="0 0 2834 950" fill="none" xmlns="http://www.w3.org/2000/svg">
<path d="M1078.29 87.3517C1057.24 95.542 1039.04 107.199 1024.21 122.705C1009.44 138.069 998.087 157.041 990.447 178.919C982.987 200.747 979.174 224.868 979.174 250.74C979.174 276.971 983.115 301.363 990.829 322.903C998.513 344.683 1009.98 363.419 1024.65 378.81C1039.14 394.37 1057.24 406.186 1077.91 414.231C1098.2 422.08 1121.01 426.195 1145.9 426.195C1166.71 426.195 1186.42 423.661 1204.44 418.677C1222.21 413.795 1241.12 405.783 1260.21 395.015L1278.03 382.229C1283.49 377.033 1287.2 371.005 1289.24 364.348L1292.14 341.527V280.37C1292.14 267.043 1289.77 256.863 1284.83 249.521C1279.59 241.699 1272.66 236.816 1264.3 234.637L1239.65 231.819H1169.47C1158.35 231.819 1149.18 235.039 1142.24 241.557C1135.03 248.281 1131.36 257.16 1131.36 267.185C1131.36 283.242 1138.96 291.148 1145.38 295.044C1153.07 299.737 1163.29 302.059 1176.93 302.059H1214.37V335.638C1204.02 341.132 1193.7 345.974 1183.62 349.272C1172.09 352.681 1159.49 354.712 1146.32 354.712C1119.81 354.712 1099.77 345.873 1085.24 328.286C1070.6 310.212 1063.14 283.63 1063.14 249.065C1063.14 233.005 1065.09 218.283 1069.08 205.247C1072.84 192.465 1078.3 181.693 1085.24 173.097C1092.31 164.501 1100.49 158.119 1110.4 153.686C1120.38 149.141 1131.89 146.867 1144.61 146.867C1156.89 146.867 1166.81 148.59 1174.46 152.253C1181.92 155.943 1187.94 160.44 1192.36 165.586L1210.72 192.604C1214.88 198.446 1219.64 202.774 1225.16 205.788C1230.75 208.646 1236.79 210.14 1242.78 210.14C1253.66 210.14 1263.22 206.339 1270.95 198.567C1278.79 190.816 1282.78 181.139 1282.78 169.82C1282.78 160.555 1279.89 150.219 1274.12 138.802C1268.47 127.888 1260.06 117.572 1249.38 108.04C1238.2 98.4986 1224.2 90.4062 1207.29 84.3309C1190.42 78.347 1170.6 75.181 1149.18 75.181C1122.96 75.1877 1099.1 79.337 1078.29 87.3517Z" fill="#CCCCCC"/>
<path d="M1589.42 362.915L1570.31 325.169C1562.48 311.596 1552.97 298.263 1542.57 285.873C1537.3 279.585 1531.92 274.246 1526.33 269.509C1543.86 262.991 1559.06 254.953 1569.27 243.485C1584.09 227.287 1591.5 205.652 1591.5 179.134C1591.5 166.183 1589.32 153.935 1585.08 142.325C1580.67 130.479 1574.34 120.143 1565.84 111.263C1557.76 102.475 1547.94 95.6526 1537.04 90.7701C1528.45 86.7729 1518.43 83.9448 1507.4 82.5594L1470.52 80.5287H1369.95C1353.84 80.5287 1341.5 84.7422 1333.52 93.0204C1325.52 101.481 1321.49 114.274 1321.49 131.073V375.812C1321.49 391.47 1325.01 403.718 1332.13 412.317C1339.54 421.457 1349.95 426.191 1363.01 426.191C1375.18 426.191 1385.26 421.744 1392.99 413.148C1400.59 404.701 1404.5 392.21 1404.5 375.812V284.768H1415.51C1425.11 284.768 1432.96 286.106 1438.85 288.579C1444.4 290.843 1450.33 295.638 1456.32 302.551C1462.78 310.211 1470.38 321.625 1478.93 336.87L1503.74 379.806L1517.9 403.262C1522.25 409.678 1527.22 415.064 1533.01 419.126C1539.52 423.863 1547.36 426.184 1556.53 426.184C1564.05 426.184 1570.84 424.555 1576.74 421.447C1582.86 418.125 1587.83 413.55 1591.4 407.813C1595.1 401.971 1596.93 395.801 1596.93 389.432C1596.94 385.482 1596.11 378.971 1589.42 362.915ZM1502.08 202.634C1498.01 207.419 1492.26 210.835 1484.12 212.849C1474.99 215.464 1463.17 216.66 1449.35 216.66H1404.5V150.671H1451C1476.81 150.671 1486.27 153.239 1489.64 154.577C1495.24 157.135 1499.57 160.699 1502.8 165.73C1505.88 170.778 1507.41 176.546 1507.41 183.176C1507.41 191.619 1505.75 198.282 1502.08 202.634Z" fill="#CCCCCC"/>
<path d="M1825.31 88.5541C1817.85 97.0013 1814.19 109.398 1814.19 125.293V283.106C1814.19 307.755 1809.97 326.042 1801.44 337.29C1793.57 347.775 1779.09 353.059 1758.51 353.059C1743.15 353.059 1731.42 350.532 1723.4 345.044C1715.64 339.733 1710.43 332.505 1707.43 322.876C1704 312.256 1702.34 298.372 1702.34 281.721V125.296C1702.34 109.544 1698.49 97.1432 1691.08 88.7467C1683.34 79.8163 1673.08 75.1738 1660.43 75.1738C1648.23 75.1738 1637.92 79.8197 1630.32 88.7467C1622.9 97.1432 1619.13 109.544 1619.13 125.296V278.22C1619.13 303.42 1621.76 325.302 1627.18 343.274C1632.69 362.331 1641.44 378.238 1653.36 390.544C1665.15 402.894 1680.72 412.034 1699.31 417.71C1717.12 423.282 1738.45 426.205 1762.96 426.205C1783.77 426.205 1802.09 423.434 1817.84 418.312C1833.96 412.825 1848.3 404.286 1860.5 392.578C1874.81 378.536 1884.73 362.202 1889.82 343.727C1894.85 326.045 1897.19 304.052 1897.19 278.376V125.296C1897.19 109.25 1893.43 96.856 1885.79 88.3142C1878.03 79.8197 1867.58 75.1738 1855.42 75.1738C1842.98 75.1738 1832.86 79.715 1825.31 88.5541Z" fill="#CCCCCC"/>
<path d="M2181.47 141.879C2176.09 128.205 2168.27 116.501 2157.91 106.959C2147.74 97.5756 2135.39 90.7739 2121.23 86.6111C2107.64 82.5666 2088.88 80.5359 2064.32 80.5359H1984.69C1968.39 80.5359 1955.84 84.7494 1947.77 92.6424C1939.26 100.948 1934.89 113.889 1934.89 131.08V376.353C1934.89 391.862 1938.67 404.016 1946.19 412.706C1953.76 421.41 1964.26 426.198 1976.51 426.198C1988.49 426.198 1998.57 421.552 2006.4 412.706C2014 404.016 2017.89 391.615 2017.89 376.015V296.987H2064.32C2104.65 296.987 2135.81 287.745 2156.73 269.32C2178.48 250.554 2189.36 222.935 2189.36 187.129C2189.36 170.542 2186.75 155.422 2181.47 141.879ZM2099.76 210.396C2095.82 215.826 2090.25 219.631 2082.61 222.094C2073.81 225.017 2062.75 226.304 2049.11 226.304H2017.9V150.681H2049.11C2081.43 150.681 2092.59 157.591 2096.53 161.693C2102.43 168.221 2105.42 177.003 2105.42 188.373C2105.42 197.752 2103.45 205.108 2099.76 210.396Z" fill="#CCCCCC"/>
<path d="M2507.8 158.544C2495.06 131.874 2476.3 111.179 2451.88 96.7646C2427.74 82.428 2398.42 75.1702 2365.08 75.1702C2340.41 75.1702 2317.99 79.3229 2298.51 87.3646C2278.84 95.5685 2262.03 107.462 2248.11 123.025C2234.23 138.436 2223.59 157.361 2216.45 178.946C2209.33 200.476 2205.81 224.28 2205.81 249.919C2205.81 274.764 2209.18 298.375 2216.12 319.916C2222.91 341.794 2233.27 360.851 2246.91 376.522C2260.5 392.264 2277.84 404.664 2298.13 413.409C2318.28 421.856 2341.23 426.208 2366.22 426.208C2391.63 426.208 2414.44 421.947 2434.35 413.662C2454.25 405.215 2471.5 392.967 2485.21 376.954C2499.01 361.158 2509.51 342.179 2516.3 320.655C2523 299.551 2526.46 275.902 2526.46 250.26C2526.46 215.451 2520.06 184.527 2507.8 158.544ZM2431.73 308.701C2424.79 324.115 2415.43 335.269 2404.08 342.179C2392.43 349.697 2379.85 353.049 2365.93 353.049C2355 353.049 2345.02 351.035 2336.09 346.94C2327.15 342.726 2319.22 336.452 2312.23 328.207C2305.35 319.703 2299.7 308.701 2295.95 295.611C2291.85 282.322 2289.77 266.769 2289.77 249.922C2289.77 233.139 2291.85 217.87 2295.95 204.588C2299.7 191.637 2305.11 181.02 2311.76 172.826C2318.27 164.764 2325.96 158.801 2335.05 154.594C2344.22 150.35 2354.14 148.161 2365.08 148.161C2380.32 148.161 2394 152.127 2405.64 159.733C2417 167.299 2426.07 178.696 2432.49 193.667C2439.04 209.278 2442.42 228.233 2442.42 249.919C2442.42 273.341 2438.72 293.043 2431.73 308.701Z" fill="#CCCCCC"/>
<path d="M1363.38 869.203C1347.81 869.203 1336.25 865.408 1329.08 857.786C1321.77 850.132 1318.1 838.141 1318.1 822.267V576.332C1318.1 565.959 1319.64 557.174 1322.77 550.372C1326.19 543.003 1331.43 537.526 1338.54 534.157C1345.2 531.035 1353.41 529.369 1363.38 529.369H1531.53C1543.31 529.369 1552.25 532.393 1558.38 538.107C1564.5 544.091 1567.84 551.852 1567.84 561.235C1567.84 570.744 1564.5 578.68 1558.38 584.536C1552.25 590.378 1543.31 593.223 1531.53 593.223H1394.17V660.767H1520.26C1531.53 660.767 1540.19 663.632 1546.21 669.359C1552.25 675.029 1555.39 682.675 1555.39 691.92C1555.39 701.209 1552.25 708.814 1546.35 714.829C1540.41 720.529 1531.68 723.533 1520.26 723.533H1394.17V803.845H1536.53C1548.07 803.845 1557.05 806.852 1563.31 812.691C1569.68 818.817 1572.9 826.906 1572.9 836.779C1572.9 846.335 1569.68 854.16 1563.31 860.364C1557.05 866.189 1548.07 869.196 1536.53 869.196H1363.38V869.203Z" fill="#CCCCCC"/>
<path d="M1710.04 874.789C1678.07 874.789 1651.26 868.383 1630.18 855.577C1615.07 846.336 1602.67 833.79 1593.25 818.42C1583.72 802.725 1578.81 787.267 1578.81 772.261C1578.81 762.624 1582.09 754.157 1588.6 747.2C1595.16 740.287 1603.61 736.746 1613.49 736.746C1621.77 736.746 1628.98 739.496 1634.73 745.024C1640.01 750.221 1644.56 757.732 1648.22 767.206C1651.99 777.14 1656.07 785.452 1660.54 792C1664.57 798.082 1670.33 803.306 1677.97 807.418C1685.38 811.321 1695.58 813.338 1708.34 813.338C1725.91 813.338 1740.02 809.307 1750.71 800.978C1760.97 792.984 1765.97 783.411 1765.97 771.852C1765.97 762.628 1763.35 755.356 1758.07 749.846C1752.52 743.797 1744.95 739.168 1735.85 735.894C1726.01 732.333 1712.7 728.684 1695.98 724.73C1673.08 719.142 1653.6 712.468 1638.15 704.971C1621.96 697.226 1608.94 686.394 1599.38 672.854C1589.69 659.153 1584.85 641.833 1584.85 621.681C1584.85 602.476 1589.92 585.048 1600.14 570.137C1610.22 555.121 1624.91 543.562 1643.91 535.5C1662.4 527.756 1684.39 523.853 1709.24 523.853C1729.15 523.853 1746.58 526.512 1761.26 531.689C1776.03 536.885 1788.49 543.954 1798.42 552.695C1808.26 561.527 1815.76 570.911 1820.32 580.753C1824.98 590.636 1827.39 600.445 1827.39 610.129C1827.39 619.512 1824.07 628.105 1817.86 635.525C1811.25 643.32 1802.88 647.317 1793.19 647.317C1784.27 647.317 1777.23 644.715 1772.26 639.762C1767.92 635.43 1763.59 628.862 1758.74 619.516L1758.6 619.323C1753.45 607.818 1747.01 598.827 1739.65 592.542C1732.81 586.673 1721.17 583.662 1704.91 583.662C1689.85 583.662 1677.64 586.97 1668.66 593.836C1660.25 600.053 1656.08 607.264 1656.08 615.704C1656.08 620.864 1657.45 625.054 1659.97 628.753C1662.92 632.926 1667.09 636.265 1672.17 639.225C1677.83 642.533 1683.58 644.955 1689.32 646.891C1695.36 648.767 1705.43 651.473 1719.59 655.19C1737.21 659.582 1753.65 664.414 1768.19 669.611C1783.12 675.044 1795.98 681.754 1806.39 689.448C1817.26 697.385 1825.87 707.681 1831.91 719.946C1837.98 732.083 1841.12 747.196 1841.12 764.645C1841.12 785.58 1835.9 804.647 1825.45 821.397C1815.09 838.152 1799.73 851.485 1779.84 860.896C1760.22 870.157 1736.74 874.789 1710.04 874.789Z" fill="#CCCCCC"/>
<path d="M1970.75 874.791C1959.49 874.791 1950.32 870.695 1943.14 862.63C1936.16 854.919 1932.64 843.174 1932.64 828.105V596.814H1869.25C1856.81 596.814 1847.26 593.841 1840.89 587.671C1834.34 581.545 1830.92 573.233 1830.92 563.279C1830.92 552.75 1834.43 544.482 1841.37 538.309C1847.88 532.355 1857.34 529.382 1869.25 529.382H2071.89C2084.3 529.382 2094 532.484 2100.56 538.67C2107.2 544.887 2110.61 553.199 2110.61 563.275C2110.61 573.226 2107.05 581.538 2100.4 587.755C2093.72 593.837 2084.21 596.811 2071.89 596.811H2008.48V828.101C2008.48 843.326 2005.01 855.027 1997.97 862.789C1990.94 870.854 1981.77 874.791 1970.75 874.791Z" fill="#CCCCCC"/>
<path d="M2154.79 874.79C2143.89 874.79 2134.73 870.695 2127.66 862.542C2120.58 854.635 2117.2 843.035 2117.2 828.108V570.387C2117.2 555.382 2120.58 543.796 2127.61 535.957C2134.59 527.912 2143.8 523.864 2154.79 523.864C2166.13 523.864 2175.5 527.912 2182.58 535.798C2189.56 543.573 2193.17 555.253 2193.17 570.387V828.108C2193.17 843.177 2189.56 854.794 2182.67 862.633C2175.5 870.695 2166.14 874.79 2154.79 874.79Z" fill="#CCCCCC"/>
<path d="M2793.01 874.79C2786.57 874.79 2780.86 873.796 2775.58 871.874C2770.27 869.843 2765.27 866.792 2760.67 862.541C2756.39 858.443 2752.31 853.645 2748.61 848.37C2745.28 843.332 2741.67 838.156 2738.19 832.956L2629.82 660.37V830.547C2629.82 844.556 2626.59 855.577 2619.94 863.089C2613.24 870.853 2604.46 874.79 2593.91 874.79C2583.12 874.79 2574.24 870.853 2567.72 862.977C2561.26 855.3 2557.99 844.42 2557.99 830.547V578.142C2557.99 566.589 2559.28 557.534 2561.92 550.624V550.529C2565.01 542.562 2570.44 536.203 2577.8 531.165C2584.92 526.283 2592.95 523.86 2601.46 523.86C2608.02 523.86 2613.79 525.029 2618.75 527.354C2623.45 529.53 2627.69 532.642 2631.35 536.453C2634.62 539.997 2638.1 544.64 2641.57 550.225C2644.69 555.375 2648.09 560.838 2651.48 566.43L2762.67 741.527V568.208C2762.67 554.037 2765.79 542.967 2771.92 535.504C2778.48 527.759 2787.19 523.857 2797.93 523.857C2808.75 523.857 2817.69 527.759 2824.11 535.504C2830.32 542.967 2833.5 554.033 2833.5 568.208V825.35C2833.5 866.19 2811.51 874.79 2793.01 874.79Z" fill="#CCCCCC"/>
<path d="M1078.29 535.932C1057.24 544.072 1039.04 555.786 1024.21 571.339C1009.44 586.642 998.087 605.628 990.447 627.499C982.987 649.334 979.174 673.388 979.174 699.273C979.174 725.551 983.115 749.933 990.829 771.439C998.513 793.216 1009.98 812.047 1024.65 827.363C1039.14 842.919 1057.24 854.756 1077.91 862.757C1098.2 870.66 1121.01 874.789 1145.9 874.789C1166.71 874.789 1186.42 872.204 1204.44 867.257C1222.21 862.378 1241.12 854.333 1260.21 843.703L1278.03 830.813C1283.49 825.616 1287.2 819.652 1289.24 812.925L1292.14 790.114V728.963C1292.14 715.674 1289.77 705.443 1284.83 698.047C1279.59 690.265 1272.66 685.386 1264.3 683.214L1239.65 680.412H1169.47C1158.35 680.412 1149.18 683.622 1142.24 690.171C1135.03 696.851 1131.36 705.7 1131.36 715.772C1131.36 731.829 1138.96 739.735 1145.38 743.668C1153.07 748.314 1163.29 750.598 1176.93 750.598H1214.37V784.228C1204.02 789.705 1193.7 794.601 1183.62 797.876C1172.09 801.278 1159.49 803.292 1146.32 803.292C1119.81 803.292 1099.77 794.466 1085.24 776.859C1070.6 758.785 1063.14 732.275 1063.14 697.641C1063.14 681.582 1065.09 666.877 1069.08 653.841C1072.84 640.995 1078.3 630.287 1085.24 621.688C1092.31 613.095 1100.49 606.733 1110.4 602.232C1120.38 597.725 1131.89 595.4 1144.61 595.4C1156.89 595.4 1166.81 597.177 1174.46 600.843C1181.92 604.547 1187.94 609.034 1192.36 614.227L1210.72 641.15C1214.88 647.164 1219.64 651.354 1225.16 654.328C1230.75 657.176 1236.79 658.717 1242.78 658.717C1253.66 658.717 1263.22 654.929 1270.95 647.164C1278.79 639.4 1282.78 629.685 1282.78 618.413C1282.78 609.142 1279.89 598.796 1274.12 587.399C1268.47 576.502 1260.06 566.112 1249.38 556.57C1238.2 547.092 1224.2 539.034 1207.29 532.928C1190.42 526.88 1170.6 523.842 1149.18 523.842C1122.96 523.842 1099.1 527.873 1078.29 535.932Z" fill="#CCCCCC"/>
<path d="M2507.8 607.144C2495.06 580.414 2476.3 559.769 2451.88 545.365C2427.74 531.072 2398.42 523.828 2365.08 523.828C2340.41 523.828 2317.99 527.859 2298.51 536.046C2278.84 544.108 2262.03 556.103 2248.11 571.565C2234.23 586.993 2223.59 605.884 2216.45 627.549C2209.33 649.069 2205.81 672.89 2205.81 698.522C2205.81 723.367 2209.18 746.979 2216.12 768.452C2222.91 790.384 2233.27 809.451 2246.91 825.119C2260.5 840.878 2277.84 853.251 2298.13 862.006C2318.28 870.412 2341.23 874.805 2366.22 874.805C2391.63 874.805 2414.44 870.602 2434.35 862.256C2454.25 853.815 2471.5 841.567 2485.21 825.636C2499.01 809.751 2509.51 790.843 2516.3 769.246C2523 748.148 2526.46 724.499 2526.46 698.853C2526.46 663.983 2520.06 633.121 2507.8 607.144ZM2431.73 757.294C2424.79 772.709 2415.43 783.825 2404.08 790.924C2392.43 798.29 2379.85 801.642 2365.93 801.642C2355 801.642 2345.02 799.611 2336.09 795.533C2327.15 791.283 2319.22 785.049 2312.23 776.797C2305.35 768.364 2299.7 757.294 2295.95 744.208C2291.85 730.919 2289.77 715.302 2289.77 698.522C2289.77 681.767 2291.85 666.467 2295.95 653.181C2299.7 640.176 2305.11 629.566 2311.76 621.471C2318.27 613.409 2325.96 607.441 2335.05 603.174C2344.22 598.988 2354.14 596.815 2365.08 596.815C2380.32 596.815 2394 600.717 2405.64 608.323C2417 615.895 2426.07 627.292 2432.49 642.315C2439.04 657.898 2442.42 676.823 2442.42 698.522C2442.42 721.87 2438.72 741.627 2431.73 757.294Z" fill="#CCCCCC"/>
<path d="M255.007 529.137C278.197 633.362 339.145 722.013 426.437 778.687C483.528 815.716 547.589 836.118 613.051 838.922L597.081 863.071C580.306 888.261 586.342 922.712 610.401 940.123C634.684 957.565 667.787 951.3 684.511 926.111L777.5 786.878C794.156 761.938 788.411 727.619 764.609 710.062L630.103 611.082C625.877 607.916 621.259 605.635 616.705 604.03C594.797 596.066 569.814 603.712 555.854 624.307C538.741 649.371 544.439 683.788 568.518 701.45L603.313 727.21C561.031 722.956 519.933 708.68 482.858 684.572C419.582 643.735 375.581 579.607 358.722 504.053C354.394 484.877 340.945 470.355 324.123 464.175C315.001 460.925 304.885 460.178 294.813 462.695C266.084 469.615 248.312 499.292 255.007 529.137Z" fill="#FF9933"/>
<path d="M725.804 599.652C801.064 526.412 844.439 427.282 847.816 320.446C850.039 250.496 835.172 182.625 804.735 122.217L832.895 124.65C862.216 127.12 887.919 104.499 890.382 73.9638C892.754 43.4998 871.046 16.6716 841.682 14.2084L679.198 0.179309C650.081 -2.23659 624.415 20.0707 621.701 50.315L606.503 220.867C605.978 226.206 606.215 231.541 607.271 236.515C611.592 260.123 630.457 278.754 654.686 281.079C683.901 283.934 709.943 261.555 712.603 231.081L716.49 186.781C734.358 227.04 742.826 271.293 741.338 316.628C738.871 393.93 707.419 465.704 653.018 518.667C639.085 532.139 633.773 551.537 637.146 569.736C638.96 579.656 643.416 589.039 650.5 596.909C670.5 619.202 704.317 620.497 725.804 599.652Z" fill="#BBCB47"/>
<path d="M550.637 129.411C452.099 98.2477 347.813 108.709 257.057 159.105C197.615 192.042 148.687 239.454 113.433 296.865L101.52 270.445C88.9131 242.823 57.0924 230.96 30.5294 244.049C3.91234 257.139 -7.4829 290.043 5.16081 317.689L74.6725 470.978C87.1199 498.472 118.514 510.318 145.121 497.637L294.779 426.218C299.492 423.893 303.731 421.031 307.52 417.615C324.908 402.005 331.089 375.532 321.013 352.728C308.674 324.899 277.006 312.657 250.277 325.46L211.354 344.115C236.168 308.022 268.564 278.227 307.101 256.845C372.85 220.343 448.303 212.741 519.659 235.356C537.821 241.188 556.72 236.292 570.071 224.138C577.383 217.617 583.029 208.788 586.078 198.404C594.695 169.319 578.824 138.304 550.637 129.411Z" fill="#CCCCCC"/>
<path d="M609.616 433.918C609.616 382.796 569.564 341.101 520.349 341.101C470.934 341.101 430.977 382.796 430.977 433.918C430.977 485.25 470.934 526.821 520.349 526.821C569.564 526.821 609.616 485.25 609.616 433.918Z" fill="#CCCCCC"/>
</svg>
